<svg xmlns="http://www.w3.org/2000/svg" viewBox="0 0 16 16" width="256" height="256" shape-rendering="crispEdges"><rect x="5" y="1" width="6" height="1" fill="#1E2A44"/><rect x="3" y="2" width="2" height="1" fill="#1E2A44"/><rect x="5" y="2" width="3" height="1" fill="#BFF0EC"/><rect x="8" y="2" width="3" height="1" fill="#4FC7BE"/><rect x="11" y="2" width="2" height="1" fill="#1E2A44"/><rect x="2" y="3" width="1" height="1" fill="#1E2A44"/><rect x="3" y="3" width="2" height="1" fill="#BFF0EC"/><rect x="5" y="3" width="7" height="1" fill="#4FC7BE"/><rect x="12" y="3" width="1" height="1" fill="#2B8F88"/><rect x="13" y="3" width="1" height="1" fill="#1E2A44"/><rect x="1" y="4" width="1" height="1" fill="#1E2A44"/><rect x="2" y="4" width="1" height="1" fill="#BFF0EC"/><rect x="3" y="4" width="3" height="1" fill="#4FC7BE"/><rect x="6" y="4" width="4" height="1" fill="#1E2A44"/><rect x="10" y="4" width="2" height="1" fill="#4FC7BE"/><rect x="12" y="4" width="2" height="1" fill="#2B8F88"/><rect x="14" y="4" width="1" height="1" fill="#1E2A44"/><rect x="1" y="5" width="1" height="1" fill="#1E2A44"/><rect x="2" y="5" width="1" height="1" fill="#BFF0EC"/><rect x="3" y="5" width="2" height="1" fill="#4FC7BE"/><rect x="5" y="5" width="1" height="1" fill="#1E2A44"/><rect x="6" y="5" width="4" height="1" fill="#4FC7BE"/><rect x="10" y="5" width="1" height="1" fill="#1E2A44"/><rect x="11" y="5" width="1" height="1" fill="#4FC7BE"/><rect x="12" y="5" width="2" height="1" fill="#2B8F88"/><rect x="14" y="5" width="1" height="1" fill="#1E2A44"/><rect x="0" y="6" width="1" height="1" fill="#1E2A44"/><rect x="1" y="6" width="1" height="1" fill="#BFF0EC"/><rect x="2" y="6" width="2" height="1" fill="#4FC7BE"/><rect x="4" y="6" width="1" height="1" fill="#1E2A44"/><rect x="5" y="6" width="1" height="1" fill="#4FC7BE"/><rect x="6" y="6" width="3" height="1" fill="#1E2A44"/><rect x="9" y="6" width="1" height="1" fill="#4FC7BE"/><rect x="10" y="6" width="1" height="1" fill="#1E2A44"/><rect x="11" y="6" width="1" height="1" fill="#4FC7BE"/><rect x="12" y="6" width="3" height="1" fill="#2B8F88"/><rect x="15" y="6" width="1" height="1" fill="#1E2A44"/><rect x="0" y="7" width="1" height="1" fill="#1E2A44"/><rect x="1" y="7" width="1" height="1" fill="#BFF0EC"/><rect x="2" y="7" width="2" height="1" fill="#4FC7BE"/><rect x="4" y="7" width="1" height="1" fill="#1E2A44"/><rect x="5" y="7" width="1" height="1" fill="#4FC7BE"/><rect x="6" y="7" width="1" height="1" fill="#1E2A44"/><rect x="7" y="7" width="1" height="1" fill="#BFF0EC"/><rect x="8" y="7" width="1" height="1" fill="#1E2A44"/><rect x="9" y="7" width="1" height="1" fill="#4FC7BE"/><rect x="10" y="7" width="1" height="1" fill="#1E2A44"/><rect x="11" y="7" width="1" height="1" fill="#4FC7BE"/><rect x="12" y="7" width="3" height="1" fill="#2B8F88"/><rect x="15" y="7" width="1" height="1" fill="#1E2A44"/><rect x="0" y="8" width="1" height="1" fill="#1E2A44"/><rect x="1" y="8" width="3" height="1" fill="#4FC7BE"/><rect x="4" y="8" width="1" height="1" fill="#1E2A44"/><rect x="5" y="8" width="2" height="1" fill="#4FC7BE"/><rect x="7" y="8" width="1" height="1" fill="#1E2A44"/><rect x="8" y="8" width="2" height="1" fill="#4FC7BE"/><rect x="10" y="8" width="1" height="1" fill="#1E2A44"/><rect x="11" y="8" width="1" height="1" fill="#4FC7BE"/><rect x="12" y="8" width="3" height="1" fill="#2B8F88"/><rect x="15" y="8" width="1" height="1" fill="#1E2A44"/><rect x="0" y="9" width="1" height="1" fill="#1E2A44"/><rect x="1" y="9" width="4" height="1" fill="#4FC7BE"/><rect x="5" y="9" width="1" height="1" fill="#1E2A44"/><rect x="6" y="9" width="3" height="1" fill="#4FC7BE"/><rect x="9" y="9" width="1" height="1" fill="#1E2A44"/><rect x="10" y="9" width="2" height="1" fill="#4FC7BE"/><rect x="12" y="9" width="3" height="1" fill="#2B8F88"/><rect x="15" y="9" width="1" height="1" fill="#1E2A44"/><rect x="0" y="10" width="1" height="1" fill="#1E2A44"/><rect x="1" y="10" width="5" height="1" fill="#4FC7BE"/><rect x="6" y="10" width="3" height="1" fill="#1E2A44"/><rect x="9" y="10" width="2" height="1" fill="#4FC7BE"/><rect x="11" y="10" width="1" height="1" fill="#2B8F88"/><rect x="12" y="10" width="4" height="1" fill="#1E2A44"/><rect x="1" y="11" width="1" height="1" fill="#1E2A44"/><rect x="2" y="11" width="1" height="1" fill="#FFF1DC"/><rect x="3" y="11" width="7" height="1" fill="#4FC7BE"/><rect x="10" y="11" width="1" height="1" fill="#2B8F88"/><rect x="11" y="11" width="1" height="1" fill="#1E2A44"/><rect x="12" y="11" width="3" height="1" fill="#FF7A5C"/><rect x="15" y="11" width="1" height="1" fill="#1E2A44"/><rect x="1" y="12" width="1" height="1" fill="#1E2A44"/><rect x="2" y="12" width="2" height="1" fill="#FFF1DC"/><rect x="4" y="12" width="4" height="1" fill="#4FC7BE"/><rect x="8" y="12" width="3" height="1" fill="#2B8F88"/><rect x="11" y="12" width="1" height="1" fill="#1E2A44"/><rect x="12" y="12" width="1" height="1" fill="#FF7A5C"/><rect x="13" y="12" width="1" height="1" fill="#FFFFFF"/><rect x="14" y="12" width="1" height="1" fill="#FF7A5C"/><rect x="15" y="12" width="1" height="1" fill="#1E2A44"/><rect x="2" y="13" width="1" height="1" fill="#1E2A44"/><rect x="3" y="13" width="2" height="1" fill="#FFF1DC"/><rect x="5" y="13" width="1" height="1" fill="#1E2A44"/><rect x="6" y="13" width="5" height="1" fill="#2B8F88"/><rect x="11" y="13" width="1" height="1" fill="#1E2A44"/><rect x="12" y="13" width="3" height="1" fill="#FF7A5C"/><rect x="15" y="13" width="1" height="1" fill="#1E2A44"/><rect x="3" y="14" width="8" height="1" fill="#1E2A44"/><rect x="12" y="14" width="3" height="1" fill="#1E2A44"/></svg>
